<svg xmlns="http://www.w3.org/2000/svg" width="1178" height="1178" viewBox="0 0 1178 1178"><g id="b24a6941-a400-4b5d-8665-c9147c1add84" data-name="Layer 2"><g id="a964e4ef-0436-4cc7-8b49-00e723a501d0" data-name="Layer 1"><path d="M978.79,574.79a391.27,391.27,0,0,0-39.42-171.72A135.2,135.2,0,0,1,789.6,238.77a391.08,391.08,0,0,0-203.68-56.85c-217,0-392.86,175.89-392.86,392.87S369,967.65,585.92,967.65,978.79,791.76,978.79,574.79Zm-665.62,0C313.17,421.91,437.1,298,590,298S866.79,421.91,866.79,574.79,742.86,851.6,590,851.6,313.17,727.67,313.17,574.79Z" fill="#4c9bd2"/><path id="abde0186-bf9d-44f6-9ea8-4ef641612509" data-name="Path 344" d="M1031.75,269.18A110.48,110.48,0,1,1,921.27,158.69h0A110.48,110.48,0,0,1,1031.75,269.18Z" fill="#f9b715"/><rect width="1178" height="1178" transform="translate(1178 0) rotate(90)" fill="none"/></g></g></svg>