<svg xmlns="http://www.w3.org/2000/svg" width="809.31" height="839" viewBox="0 0 809.31 839"><g id="f272f8b6-c075-4a90-92fc-e50a86821288" data-name="Layer 2"><g id="ad0930ea-3f24-49e2-9b38-c06ec9948232" data-name="Layer 1"><path d="M416.1,53.21A391.27,391.27,0,0,0,244.38,92.63,135.2,135.2,0,0,1,80.08,242.4,391.08,391.08,0,0,0,23.23,446.08c0,217,175.88,392.86,392.86,392.86S809,663.05,809,446.08,633.07,53.21,416.1,53.21Zm0,665.62c-152.87,0-276.8-123.93-276.8-276.81S263.22,165.21,416.1,165.21,692.9,289.14,692.9,442,569,718.83,416.09,718.83Z" fill="#f9b715"/><path id="ac3153d3-e3bf-4490-a27a-c70f790598ee" data-name="Path 344" d="M110.48.25A110.48,110.48,0,1,1,0,110.73H0A110.48,110.48,0,0,1,110.48.25Z" fill="#4caf4f"/><rect x="0.31" width="809" height="839" fill="none"/></g></g></svg>