<svg xmlns="http://www.w3.org/2000/svg" width="839" height="809.31" viewBox="0 0 839 809.31"><g id="ae28fa30-ac82-42d2-88b1-54bfc62288bc" data-name="Layer 2"><g id="ea4bc8f4-6384-49ac-8e35-c132a8e8b909" data-name="Layer 1"><path d="M785.79,416.1a391.27,391.27,0,0,0-39.42-171.72A135.2,135.2,0,0,1,596.6,80.08,391.08,391.08,0,0,0,392.92,23.23C176,23.23.06,199.11.06,416.1S176,809,392.92,809,785.79,633.07,785.79,416.1Zm-665.62,0c0-152.88,123.93-276.81,276.81-276.81S673.79,263.22,673.79,416.1,549.86,692.9,397,692.9,120.17,569,120.17,416.1Z" fill="#4c9bd2"/><path id="bfcc579d-0a4f-475a-b442-10ae4094baad" data-name="Path 344" d="M838.75,110.48A110.48,110.48,0,1,1,728.27,0h0A110.48,110.48,0,0,1,838.75,110.48Z" fill="#f9b715"/><rect x="15" y="-14.69" width="809" height="839" transform="translate(824.31 -14.69) rotate(90)" fill="none"/></g></g></svg>