<svg xmlns="http://www.w3.org/2000/svg" width="1080" height="1080" viewBox="0 0 1080 1080"><g id="a0b3f4e0-9eb5-4adb-9593-cc3d4f98687d" data-name="Layer 2"><g id="fb039c05-1189-4788-b4b9-be4c12f2f3f8" data-name="Layer 1"><path d="M527,175.82c-203.55,0-368.57,165-368.57,368.56S323.45,913,527,913a367.55,367.55,0,0,0,129.66-23.46A203.65,203.65,0,0,1,667.19,763,258.49,258.49,0,0,1,527,804.07c-143.42,0-259.69-116.27-259.69-259.69S383.58,284.69,527,284.69,786.69,401,786.69,544.38a258.56,258.56,0,0,1-29,119.33,203.38,203.38,0,0,1,124.92-22.19,368.75,368.75,0,0,0,12.94-97.14C895.57,340.83,730.55,175.82,527,175.82Z" fill="#f9b715"/><path id="a29c341d-d21e-43d8-9368-c928db6def3e" data-name="Path 341" d="M853.87,676.44a165.81,165.81,0,1,1-165.8,165.81,165.8,165.8,0,0,1,165.8-165.81Z" fill="#4caf4f"/><rect width="1080" height="1080" fill="none"/></g></g></svg>