<svg xmlns="http://www.w3.org/2000/svg" width="809.31" height="839" viewBox="0 0 809.31 839"><g id="e5fe12bb-71c6-42d6-9c2c-4d85319eb7df" data-name="Layer 2"><g id="b08ba7d8-aa0d-4957-b0f6-af61d3d20e29" data-name="Layer 1"><path d="M393.21,785.79a391.27,391.27,0,0,0,171.72-39.42A135.2,135.2,0,0,1,729.23,596.6a391.08,391.08,0,0,0,56.85-203.68C786.08,176,610.19.06,393.21.06S.35,176,.35,392.92,176.24,785.79,393.21,785.79Zm0-665.62C546.09,120.17,670,244.1,670,397S546.09,673.79,393.21,673.79,116.4,549.86,116.4,397,240.33,120.17,393.21,120.17Z" fill="#4caf4f"/><path id="f203a97d-6216-4268-9c40-0c392f1d8a3c" data-name="Path 344" d="M698.82,838.75A110.48,110.48,0,1,1,809.31,728.27h0A110.48,110.48,0,0,1,698.82,838.75Z" fill="#4c9bd2"/><rect width="809" height="839" transform="translate(809 839) rotate(-180)" fill="none"/></g></g></svg>