<?xml version="1.0" encoding="utf-8"?>
<!-- Generator: Adobe Illustrator 25.1.0, SVG Export Plug-In . SVG Version: 6.00 Build 0)  -->
<svg version="1.1" id="Layer_1" xmlns="http://www.w3.org/2000/svg" xmlns:xlink="http://www.w3.org/1999/xlink" x="0px" y="0px"
	 viewBox="0 0 1920 1080" style="enable-background:new 0 0 1920 1080;" xml:space="preserve">
<style type="text/css">
	.st0{fill:#4CAF4F;}
	.st1{fill:#AD5EA3;stroke:#FFFFFF;stroke-width:15;}
	.st2{enable-background:new    ;}
	.st3{fill:#FFFFFF;}
</style>
<path id="Rectangle_26_1_" class="st0" d="M-0.2,0.2h568.9l0,0v96.9c0,32.8-24.6,59.4-54.9,59.4h-514l0,0V0.2L-0.2,0.2z"/>
<circle class="st1" cx="2270" cy="317.8" r="72.2"/>
<circle class="st1" cx="2215.8" cy="70.2" r="63.7"/>
<circle class="st1" cx="2197.8" cy="219.5" r="46.1"/>
<circle class="st1" cx="2243.9" cy="253.3" r="33.8"/>
<circle class="st1" cx="2279.6" cy="167.7" r="91"/>
<circle class="st1" cx="2279.2" cy="616.6" r="72.2"/>
<circle class="st1" cx="2225.1" cy="368.9" r="63.7"/>
<circle class="st1" cx="2207" cy="518.3" r="46.1"/>
<circle class="st1" cx="2253.1" cy="552.1" r="33.8"/>
<circle class="st1" cx="2288.8" cy="466.4" r="91"/>
<circle class="st1" cx="2253.1" cy="702.6" r="72.2"/>
<circle class="st1" cx="2262.3" cy="1001.3" r="72.2"/>
<circle class="st1" cx="2208.2" cy="753.6" r="63.7"/>
<circle class="st1" cx="2190.1" cy="903" r="46.1"/>
<circle class="st1" cx="2236.2" cy="936.8" r="33.8"/>
<circle class="st1" cx="2271.9" cy="851.2" r="91"/>
<g class="st2">
	<path class="st3" d="M108.8,58.8L96.5,95.9h-7.3L80,68.4l-9.3,27.5h-7.4L51,58.8h7.2L67.4,87L77,58.8h6.4l9.4,28.4l9.5-28.4H108.8z
		"/>
	<path class="st3" d="M116.6,94.4c-2.3-1.2-4.1-3-5.4-5.2c-1.3-2.2-1.9-4.7-1.9-7.5c0-2.8,0.6-5.3,1.9-7.5c1.3-2.2,3.1-3.9,5.4-5.1
		c2.3-1.2,4.9-1.9,7.7-1.9c2.9,0,5.5,0.6,7.8,1.9c2.3,1.2,4.1,3,5.4,5.1c1.3,2.2,1.9,4.7,1.9,7.5c0,2.8-0.6,5.3-1.9,7.5
		c-1.3,2.2-3.1,3.9-5.4,5.2c-2.3,1.2-4.9,1.9-7.8,1.9C121.5,96.2,118.9,95.6,116.6,94.4z M130.4,88.1c1.6-1.6,2.4-3.8,2.4-6.4
		c0-2.6-0.8-4.8-2.4-6.4c-1.6-1.6-3.6-2.4-6-2.4s-4.4,0.8-6,2.4c-1.6,1.6-2.4,3.8-2.4,6.4c0,2.7,0.8,4.8,2.4,6.4
		c1.6,1.6,3.6,2.4,6,2.4S128.8,89.7,130.4,88.1z"/>
	<path class="st3" d="M162.2,67.2v6.3c-0.6-0.1-1.1-0.2-1.5-0.2c-2.6,0-4.6,0.8-6,2.3c-1.4,1.5-2.2,3.7-2.2,6.5v13.7h-6.6V67.6h6.3
		v4.1C154,68.7,157.4,67.2,162.2,67.2z"/>
	<path class="st3" d="M195.3,56.5v39.3h-6.4v-3.7c-1.1,1.3-2.4,2.4-4.1,3c-1.6,0.7-3.4,1-5.3,1c-2.7,0-5.2-0.6-7.3-1.8
		c-2.2-1.2-3.9-2.9-5.1-5.1c-1.2-2.2-1.9-4.7-1.9-7.6c0-2.9,0.6-5.4,1.9-7.6c1.2-2.2,2.9-3.9,5.1-5.1c2.2-1.2,4.6-1.8,7.3-1.8
		c1.9,0,3.6,0.3,5.1,1c1.6,0.6,2.9,1.6,4,2.9V56.5H195.3z M184.6,89.5c1.3-0.7,2.3-1.8,3-3.1c0.7-1.3,1.1-2.9,1.1-4.7
		c0-1.8-0.4-3.3-1.1-4.7c-0.7-1.3-1.7-2.4-3-3.1s-2.7-1.1-4.3-1.1c-1.6,0-3,0.4-4.3,1.1s-2.3,1.8-3,3.1c-0.7,1.3-1.1,2.9-1.1,4.7
		c0,1.8,0.4,3.3,1.1,4.7c0.7,1.3,1.7,2.4,3,3.1c1.3,0.7,2.7,1.1,4.3,1.1C181.9,90.6,183.3,90.2,184.6,89.5z"/>
	<path class="st3" d="M245.1,67.6l-12.1,28.3h-6.8L214,67.6h6.9l8.8,21l9.1-21H245.1z"/>
	<path class="st3" d="M265.6,67.2v6.3c-0.6-0.1-1.1-0.2-1.5-0.2c-2.6,0-4.6,0.8-6,2.3c-1.4,1.5-2.2,3.7-2.2,6.5v13.7h-6.6V67.6h6.3
		v4.1C257.4,68.7,260.8,67.2,265.6,67.2z"/>
	<path class="st3" d="M271.5,61.8c-0.8-0.8-1.2-1.7-1.2-2.8c0-1.1,0.4-2.1,1.2-2.8c0.8-0.8,1.8-1.1,3-1.1c1.2,0,2.2,0.4,3,1.1
		c0.8,0.7,1.2,1.6,1.2,2.7c0,1.2-0.4,2.1-1.2,2.9s-1.8,1.2-3,1.2C273.3,62.9,272.3,62.5,271.5,61.8z M271.2,67.6h6.6v28.3h-6.6V67.6
		z"/>
	<path class="st3" d="M277.2,104.9l1.9-4.9c1,0.7,2.3,1.1,3.9,1.1c1.2,0,2.2-0.4,2.8-1.1c0.7-0.8,1-1.9,1-3.4v-29h6.6v28.8
		c0,3.1-0.9,5.6-2.6,7.4c-1.7,1.8-4.2,2.7-7.3,2.7C280.8,106.5,278.7,106,277.2,104.9z M287.1,61.8c-0.8-0.8-1.2-1.7-1.2-2.8
		c0-1.1,0.4-2.1,1.2-2.8c0.8-0.8,1.8-1.1,3-1.1c1.2,0,2.2,0.4,3,1.1c0.8,0.7,1.2,1.6,1.2,2.7c0,1.2-0.4,2.1-1.2,2.9s-1.8,1.2-3,1.2
		C288.9,62.9,287.9,62.5,287.1,61.8z"/>
	<path class="st3" d="M346.3,67.6l-10.4,28.3h-6.4l-7.3-19.5l-7.4,19.5h-6.4L298,67.6h6.3l7.5,20.9l7.8-20.9h5.6l7.6,21l7.7-21
		H346.3z"/>
	<path class="st3" d="M351.2,61.8c-0.8-0.8-1.2-1.7-1.2-2.8c0-1.1,0.4-2.1,1.2-2.8c0.8-0.8,1.8-1.1,3-1.1c1.2,0,2.2,0.4,3,1.1
		c0.8,0.7,1.2,1.6,1.2,2.7c0,1.2-0.4,2.1-1.2,2.9s-1.8,1.2-3,1.2C353,62.9,352,62.5,351.2,61.8z M350.9,67.6h6.6v28.3h-6.6V67.6z"/>
	<path class="st3" d="M366.2,56.5h6.6v39.3h-6.6V56.5z"/>
	<path class="st3" d="M381.5,56.5h6.6v39.3h-6.6V56.5z"/>
	<path class="st3" d="M397.1,61.8c-0.8-0.8-1.2-1.7-1.2-2.8c0-1.1,0.4-2.1,1.2-2.8c0.8-0.8,1.8-1.1,3-1.1c1.2,0,2.2,0.4,3,1.1
		c0.8,0.7,1.2,1.6,1.2,2.7c0,1.2-0.4,2.1-1.2,2.9s-1.8,1.2-3,1.2C398.9,62.9,397.9,62.5,397.1,61.8z M396.8,67.6h6.6v28.3h-6.6V67.6
		z"/>
	<path class="st3" d="M440.2,67.6v24c0,10-5.1,14.9-15.3,14.9c-2.7,0-5.3-0.3-7.7-1c-2.4-0.7-4.5-1.7-6-3l3-5c1.2,1,2.8,1.8,4.7,2.5
		c1.9,0.6,3.8,0.9,5.8,0.9c3.1,0,5.4-0.7,6.8-2.1c1.4-1.4,2.2-3.6,2.2-6.5v-1.5c-1.1,1.2-2.5,2.2-4.1,2.8c-1.6,0.6-3.4,1-5.4,1
		c-2.7,0-5.1-0.6-7.3-1.7c-2.2-1.1-3.9-2.8-5.1-4.8c-1.3-2.1-1.9-4.5-1.9-7.2c0-2.7,0.6-5.1,1.9-7.1c1.3-2.1,3-3.7,5.1-4.8
		c2.2-1.1,4.6-1.7,7.3-1.7c2,0,3.9,0.3,5.6,1c1.7,0.7,3.1,1.7,4.2,3.1v-3.8H440.2z M431.3,86.7c1.6-1.5,2.4-3.5,2.4-5.9
		c0-2.4-0.8-4.3-2.4-5.8c-1.6-1.5-3.7-2.2-6.2-2.2c-2.5,0-4.6,0.7-6.2,2.2c-1.6,1.5-2.4,3.4-2.4,5.8c0,2.4,0.8,4.4,2.4,5.9
		c1.6,1.5,3.7,2.3,6.2,2.3C427.6,89,429.7,88.2,431.3,86.7z"/>
	<path class="st3" d="M475.4,83.8h-22.2c0.4,2.1,1.4,3.7,3,5c1.6,1.2,3.7,1.8,6.1,1.8c3.1,0,5.7-1,7.7-3.1l3.6,4.1
		c-1.3,1.5-2.9,2.7-4.8,3.4c-1.9,0.8-4.1,1.2-6.6,1.2c-3.1,0-5.8-0.6-8.2-1.9c-2.4-1.2-4.2-3-5.5-5.2c-1.3-2.2-1.9-4.7-1.9-7.5
		c0-2.8,0.6-5.2,1.9-7.4c1.3-2.2,3-3.9,5.2-5.2c2.2-1.2,4.7-1.9,7.5-1.9c2.8,0,5.2,0.6,7.4,1.8c2.2,1.2,3.9,2.9,5.1,5.1
		c1.2,2.2,1.8,4.8,1.8,7.7C475.5,82.3,475.5,83,475.4,83.8z M455.8,74.4c-1.5,1.3-2.4,2.9-2.7,5h16.1c-0.3-2-1.1-3.7-2.6-5
		c-1.4-1.3-3.3-1.9-5.4-1.9C459.1,72.5,457.3,73.2,455.8,74.4z"/>
	<path class="st3" d="M498.3,67.2v6.3c-0.6-0.1-1.1-0.2-1.5-0.2c-2.6,0-4.6,0.8-6,2.3c-1.4,1.5-2.2,3.7-2.2,6.5v13.7h-6.6V67.6h6.3
		v4.1C490.1,68.7,493.4,67.2,498.3,67.2z"/>
	<path class="st3" d="M504.1,95c-0.8-0.8-1.2-1.8-1.2-2.9s0.4-2.1,1.2-2.9c0.8-0.8,1.8-1.2,3.1-1.2c1.2,0,2.2,0.4,3,1.2
		s1.2,1.7,1.2,2.9s-0.4,2.1-1.2,2.9s-1.8,1.2-3,1.2C506,96.2,504.9,95.8,504.1,95z M503.3,58.8h7.8l-1.3,24.8h-5.2L503.3,58.8z"/>
</g>
</svg>
