<?xml version="1.0" encoding="utf-8"?>
<!-- Generator: Adobe Illustrator 25.1.0, SVG Export Plug-In . SVG Version: 6.00 Build 0)  -->
<svg version="1.1" id="Layer_1" xmlns="http://www.w3.org/2000/svg" xmlns:xlink="http://www.w3.org/1999/xlink" x="0px" y="0px"
	 viewBox="0 0 1920 1080" style="enable-background:new 0 0 1920 1080;" xml:space="preserve">
<style type="text/css">
	.st0{fill:#4CAF4F;}
	.st1{fill:#AD5EA3;stroke:#FFFFFF;stroke-width:15;}
	.st2{enable-background:new    ;}
	.st3{fill:#FFFFFF;}
	.st4{fill:#F9B715;}
</style>
<path id="Rectangle_26_1_" class="st0" d="M3080.1,507.7H3649l0,0v96.9c0,32.8-24.6,59.4-54.9,59.4h-514l0,0V507.7L3080.1,507.7z"/>
<circle class="st1" cx="2270" cy="317.8" r="72.2"/>
<circle class="st1" cx="2215.8" cy="70.2" r="63.7"/>
<circle class="st1" cx="2197.8" cy="219.5" r="46.1"/>
<circle class="st1" cx="2243.9" cy="253.3" r="33.8"/>
<circle class="st1" cx="2279.6" cy="167.7" r="91"/>
<circle class="st1" cx="2279.2" cy="616.6" r="72.2"/>
<circle class="st1" cx="2225.1" cy="368.9" r="63.7"/>
<circle class="st1" cx="2207" cy="518.3" r="46.1"/>
<circle class="st1" cx="2253.1" cy="552.1" r="33.8"/>
<circle class="st1" cx="2288.8" cy="466.4" r="91"/>
<circle class="st1" cx="2253.1" cy="702.6" r="72.2"/>
<circle class="st1" cx="2262.3" cy="1001.3" r="72.2"/>
<circle class="st1" cx="2208.2" cy="753.6" r="63.7"/>
<circle class="st1" cx="2190.1" cy="903" r="46.1"/>
<circle class="st1" cx="2236.2" cy="936.8" r="33.8"/>
<circle class="st1" cx="2271.9" cy="851.2" r="91"/>
<g class="st2">
	<path class="st3" d="M3189.1,566.3l-12.3,37.1h-7.3l-9.2-27.5l-9.3,27.5h-7.4l-12.3-37.1h7.2l9.2,28.2l9.6-28.2h6.4l9.4,28.4
		l9.5-28.4C3182.6,566.3,3189.1,566.3,3189.1,566.3z"/>
	<path class="st3" d="M3196.9,601.9c-2.3-1.2-4.1-3-5.4-5.2c-1.3-2.2-1.9-4.7-1.9-7.5c0-2.8,0.6-5.3,1.9-7.5
		c1.3-2.2,3.1-3.9,5.4-5.1s4.9-1.9,7.7-1.9c2.9,0,5.5,0.6,7.8,1.9c2.3,1.2,4.1,3,5.4,5.1c1.3,2.2,1.9,4.7,1.9,7.5
		c0,2.8-0.6,5.3-1.9,7.5c-1.3,2.2-3.1,3.9-5.4,5.2c-2.3,1.2-4.9,1.9-7.8,1.9C3201.8,603.7,3199.2,603.1,3196.9,601.9z M3210.7,595.6
		c1.6-1.6,2.4-3.8,2.4-6.4c0-2.6-0.8-4.8-2.4-6.4c-1.6-1.6-3.6-2.4-6-2.4c-2.4,0-4.4,0.8-6,2.4c-1.6,1.6-2.4,3.8-2.4,6.4
		c0,2.7,0.8,4.8,2.4,6.4c1.6,1.6,3.6,2.4,6,2.4C3207.1,598,3209.1,597.2,3210.7,595.6z"/>
	<path class="st3" d="M3242.5,574.7v6.3c-0.6-0.1-1.1-0.2-1.5-0.2c-2.6,0-4.6,0.8-6,2.3c-1.4,1.5-2.2,3.7-2.2,6.5v13.7h-6.6v-28.2
		h6.3v4.1C3234.3,576.2,3237.7,574.7,3242.5,574.7z"/>
	<path class="st3" d="M3275.6,564v39.3h-6.4v-3.7c-1.1,1.3-2.4,2.4-4.1,3c-1.6,0.7-3.4,1-5.3,1c-2.7,0-5.2-0.6-7.3-1.8
		c-2.2-1.2-3.9-2.9-5.1-5.1c-1.2-2.2-1.9-4.7-1.9-7.6s0.6-5.4,1.9-7.6c1.2-2.2,2.9-3.9,5.1-5.1c2.2-1.2,4.6-1.8,7.3-1.8
		c1.9,0,3.6,0.3,5.1,1c1.6,0.6,2.9,1.6,4,2.9V564H3275.6z M3264.9,597c1.3-0.7,2.3-1.8,3-3.1s1.1-2.9,1.1-4.7c0-1.8-0.4-3.3-1.1-4.7
		c-0.7-1.3-1.7-2.4-3-3.1c-1.3-0.7-2.7-1.1-4.3-1.1c-1.6,0-3,0.4-4.3,1.1c-1.3,0.7-2.3,1.8-3,3.1c-0.7,1.3-1.1,2.9-1.1,4.7
		c0,1.8,0.4,3.3,1.1,4.7c0.7,1.3,1.7,2.4,3,3.1c1.3,0.7,2.7,1.1,4.3,1.1C3262.2,598.1,3263.6,597.7,3264.9,597z"/>
	<path class="st3" d="M3325.4,575.1l-12.1,28.3h-6.8l-12.2-28.3h6.9l8.8,21l9.1-21H3325.4z"/>
	<path class="st3" d="M3345.9,574.7v6.3c-0.6-0.1-1.1-0.2-1.5-0.2c-2.6,0-4.6,0.8-6,2.3s-2.2,3.7-2.2,6.5v13.7h-6.6v-28.2h6.3v4.1
		C3337.7,576.2,3341.1,574.7,3345.9,574.7z"/>
	<path class="st3" d="M3351.8,569.3c-0.8-0.8-1.2-1.7-1.2-2.8c0-1.1,0.4-2.1,1.2-2.8c0.8-0.8,1.8-1.1,3-1.1c1.2,0,2.2,0.4,3,1.1
		c0.8,0.7,1.2,1.6,1.2,2.7c0,1.2-0.4,2.1-1.2,2.9c-0.8,0.8-1.8,1.2-3,1.2C3353.6,570.4,3352.6,570,3351.8,569.3z M3351.5,575.1h6.6
		v28.3h-6.6V575.1z"/>
	<path class="st3" d="M3357.5,612.4l1.9-4.9c1,0.7,2.3,1.1,3.9,1.1c1.2,0,2.2-0.4,2.8-1.1c0.7-0.8,1-1.9,1-3.4v-29h6.6v28.8
		c0,3.1-0.9,5.6-2.6,7.4c-1.7,1.8-4.2,2.7-7.3,2.7C3361.1,614,3359,613.5,3357.5,612.4z M3367.4,569.3c-0.8-0.8-1.2-1.7-1.2-2.8
		c0-1.1,0.4-2.1,1.2-2.8c0.8-0.8,1.8-1.1,3-1.1s2.2,0.4,3,1.1c0.8,0.7,1.2,1.6,1.2,2.7c0,1.2-0.4,2.1-1.2,2.9s-1.8,1.2-3,1.2
		C3369.2,570.4,3368.2,570,3367.4,569.3z"/>
	<path class="st3" d="M3426.6,575.1l-10.4,28.3h-6.4l-7.3-19.5l-7.4,19.5h-6.4l-10.4-28.3h6.3l7.5,20.9l7.8-20.9h5.6l7.6,21l7.7-21
		H3426.6z"/>
	<path class="st3" d="M3431.5,569.3c-0.8-0.8-1.2-1.7-1.2-2.8c0-1.1,0.4-2.1,1.2-2.8c0.8-0.8,1.8-1.1,3-1.1c1.2,0,2.2,0.4,3,1.1
		c0.8,0.7,1.2,1.6,1.2,2.7c0,1.2-0.4,2.1-1.2,2.9s-1.8,1.2-3,1.2C3433.3,570.4,3432.3,570,3431.5,569.3z M3431.2,575.1h6.6v28.3
		h-6.6V575.1z"/>
	<path class="st3" d="M3446.5,564h6.6v39.3h-6.6V564z"/>
	<path class="st3" d="M3461.8,564h6.6v39.3h-6.6V564z"/>
	<path class="st3" d="M3477.4,569.3c-0.8-0.8-1.2-1.7-1.2-2.8c0-1.1,0.4-2.1,1.2-2.8c0.8-0.8,1.8-1.1,3-1.1s2.2,0.4,3,1.1
		c0.8,0.7,1.2,1.6,1.2,2.7c0,1.2-0.4,2.1-1.2,2.9s-1.8,1.2-3,1.2C3479.2,570.4,3478.2,570,3477.4,569.3z M3477.1,575.1h6.6v28.3
		h-6.6V575.1z"/>
	<path class="st3" d="M3520.5,575.1v24c0,10-5.1,14.9-15.3,14.9c-2.7,0-5.3-0.3-7.7-1c-2.4-0.7-4.5-1.7-6-3l3-5
		c1.2,1,2.8,1.8,4.7,2.5c1.9,0.6,3.8,0.9,5.8,0.9c3.1,0,5.4-0.7,6.8-2.1c1.4-1.4,2.2-3.6,2.2-6.5v-1.5c-1.1,1.2-2.5,2.2-4.1,2.8
		s-3.4,1-5.4,1c-2.7,0-5.1-0.6-7.3-1.7c-2.2-1.1-3.9-2.8-5.1-4.8c-1.3-2.1-1.9-4.5-1.9-7.2c0-2.7,0.6-5.1,1.9-7.1
		c1.3-2.1,3-3.7,5.1-4.8c2.2-1.1,4.6-1.7,7.3-1.7c2,0,3.9,0.3,5.6,1c1.7,0.7,3.1,1.7,4.2,3.1v-3.8
		C3514.3,575.1,3520.5,575.1,3520.5,575.1z M3511.6,594.2c1.6-1.5,2.4-3.5,2.4-5.9c0-2.4-0.8-4.3-2.4-5.8c-1.6-1.5-3.7-2.2-6.2-2.2
		s-4.6,0.7-6.2,2.2c-1.6,1.5-2.4,3.4-2.4,5.8c0,2.4,0.8,4.4,2.4,5.9c1.6,1.5,3.7,2.3,6.2,2.3S3510,595.7,3511.6,594.2z"/>
	<path class="st3" d="M3555.7,591.3h-22.2c0.4,2.1,1.4,3.7,3,5c1.6,1.2,3.7,1.8,6.1,1.8c3.1,0,5.7-1,7.7-3.1l3.6,4.1
		c-1.3,1.5-2.9,2.7-4.8,3.4c-1.9,0.8-4.1,1.2-6.6,1.2c-3.1,0-5.8-0.6-8.2-1.9c-2.4-1.2-4.2-3-5.5-5.2c-1.3-2.2-1.9-4.7-1.9-7.5
		s0.6-5.2,1.9-7.4c1.3-2.2,3-3.9,5.2-5.2c2.2-1.2,4.7-1.9,7.5-1.9c2.8,0,5.2,0.6,7.4,1.8s3.9,2.9,5.1,5.1c1.2,2.2,1.8,4.8,1.8,7.7
		C3555.8,589.8,3555.8,590.5,3555.7,591.3z M3536.1,581.9c-1.5,1.3-2.4,2.9-2.7,5h16.1c-0.3-2-1.1-3.7-2.6-5
		c-1.4-1.3-3.3-1.9-5.4-1.9C3539.4,580,3537.6,580.7,3536.1,581.9z"/>
	<path class="st3" d="M3578.6,574.7v6.3c-0.6-0.1-1.1-0.2-1.5-0.2c-2.6,0-4.6,0.8-6,2.3c-1.4,1.5-2.2,3.7-2.2,6.5v13.7h-6.6v-28.2
		h6.3v4.1C3570.4,576.2,3573.7,574.7,3578.6,574.7z"/>
	<path class="st3" d="M3584.4,602.5c-0.8-0.8-1.2-1.8-1.2-2.9s0.4-2.1,1.2-2.9c0.8-0.8,1.8-1.2,3.1-1.2c1.2,0,2.2,0.4,3,1.2
		c0.8,0.8,1.2,1.7,1.2,2.9s-0.4,2.1-1.2,2.9c-0.8,0.8-1.8,1.2-3,1.2C3586.3,603.7,3585.2,603.3,3584.4,602.5z M3583.6,566.3h7.8
		l-1.3,24.8h-5.2L3583.6,566.3z"/>
</g>
<path id="Rectangle_26" class="st4" d="M0-0.2h569l0,0v100c0,31.5-25.5,57-57,57H0l0,0V-0.2L0-0.2z"/>
<g class="st2">
	<path class="st3" d="M88.5,28.4v36.4h-5.6L62.8,40.2v24.6h-6.7V28.4h5.6l20.1,24.6V28.4H88.5z"/>
	<path class="st3" d="M123.6,53h-21.8c0.4,2,1.4,3.7,3,4.9c1.6,1.2,3.6,1.8,6,1.8c3,0,5.6-1,7.5-3l3.5,4c-1.2,1.5-2.8,2.6-4.7,3.4
		c-1.9,0.8-4.1,1.1-6.4,1.1c-3.1,0-5.7-0.6-8.1-1.8c-2.3-1.2-4.1-2.9-5.4-5.1c-1.3-2.2-1.9-4.6-1.9-7.4c0-2.7,0.6-5.1,1.8-7.3
		c1.2-2.2,2.9-3.9,5.1-5.1c2.2-1.2,4.6-1.8,7.4-1.8c2.7,0,5.1,0.6,7.3,1.8s3.8,2.9,5,5c1.2,2.2,1.8,4.7,1.8,7.5
		C123.7,51.6,123.7,52.2,123.6,53z M104.4,43.8c-1.4,1.2-2.3,2.9-2.6,4.9h15.8c-0.3-2-1.1-3.6-2.5-4.9c-1.4-1.2-3.2-1.9-5.3-1.9
		C107.6,42,105.9,42.6,104.4,43.8z"/>
	<path class="st3" d="M156,53h-21.8c0.4,2,1.4,3.7,3,4.9c1.6,1.2,3.6,1.8,6,1.8c3,0,5.6-1,7.5-3l3.5,4c-1.2,1.5-2.8,2.6-4.7,3.4
		c-1.9,0.8-4.1,1.1-6.4,1.1c-3.1,0-5.7-0.6-8.1-1.8c-2.3-1.2-4.1-2.9-5.4-5.1c-1.3-2.2-1.9-4.6-1.9-7.4c0-2.7,0.6-5.1,1.8-7.3
		c1.2-2.2,2.9-3.9,5.1-5.1c2.2-1.2,4.6-1.8,7.4-1.8c2.7,0,5.1,0.6,7.3,1.8s3.8,2.9,5,5c1.2,2.2,1.8,4.7,1.8,7.5
		C156.1,51.6,156,52.2,156,53z M136.8,43.8c-1.4,1.2-2.3,2.9-2.6,4.9h15.8c-0.3-2-1.1-3.6-2.5-4.9c-1.4-1.2-3.2-1.9-5.3-1.9
		C140,42,138.2,42.6,136.8,43.8z"/>
	<path class="st3" d="M205.7,39.8c2,2,3.1,5.1,3.1,9.1v15.9h-6.5V49.8c0-2.4-0.5-4.3-1.6-5.5c-1.1-1.2-2.6-1.8-4.6-1.8
		c-2.2,0-3.9,0.7-5.3,2.2c-1.3,1.4-2,3.5-2,6.2v14.1h-6.5V49.8c0-2.4-0.5-4.3-1.6-5.5c-1.1-1.2-2.6-1.8-4.6-1.8
		c-2.2,0-4,0.7-5.3,2.1c-1.3,1.4-1.9,3.5-1.9,6.2v14.1h-6.5V37.1h6.2v3.5c1-1.2,2.3-2.2,3.9-2.9c1.6-0.7,3.3-1,5.2-1
		c2.1,0,3.9,0.4,5.5,1.2c1.6,0.8,2.9,1.9,3.8,3.5c1.1-1.5,2.6-2.6,4.4-3.4c1.8-0.8,3.8-1.2,6-1.2C200.9,36.8,203.6,37.8,205.7,39.8z
		"/>
	<path class="st3" d="M258.6,26.3v38.6h-6.2v-3.6c-1.1,1.3-2.4,2.3-4,3c-1.6,0.7-3.3,1-5.2,1c-2.7,0-5.1-0.6-7.2-1.8
		c-2.1-1.2-3.8-2.9-5-5c-1.2-2.2-1.8-4.7-1.8-7.5c0-2.8,0.6-5.3,1.8-7.4c1.2-2.1,2.9-3.8,5-5s4.5-1.8,7.2-1.8c1.8,0,3.5,0.3,5,0.9
		c1.5,0.6,2.8,1.6,3.9,2.8V26.3H258.6z M248.2,58.6c1.2-0.7,2.2-1.7,3-3s1.1-2.8,1.1-4.6s-0.4-3.3-1.1-4.6s-1.7-2.3-3-3
		c-1.2-0.7-2.7-1.1-4.2-1.1s-3,0.4-4.2,1.1c-1.2,0.7-2.2,1.7-3,3s-1.1,2.8-1.1,4.6s0.4,3.3,1.1,4.6s1.7,2.3,3,3s2.7,1.1,4.2,1.1
		S246.9,59.3,248.2,58.6z"/>
	<path class="st3" d="M293.2,53h-21.8c0.4,2,1.4,3.7,3,4.9c1.6,1.2,3.6,1.8,6,1.8c3,0,5.6-1,7.5-3l3.5,4c-1.2,1.5-2.8,2.6-4.7,3.4
		c-1.9,0.8-4.1,1.1-6.4,1.1c-3.1,0-5.7-0.6-8.1-1.8c-2.3-1.2-4.1-2.9-5.4-5.1c-1.3-2.2-1.9-4.6-1.9-7.4c0-2.7,0.6-5.1,1.8-7.3
		c1.2-2.2,2.9-3.9,5.1-5.1c2.2-1.2,4.6-1.8,7.4-1.8c2.7,0,5.1,0.6,7.3,1.8s3.8,2.9,5,5c1.2,2.2,1.8,4.7,1.8,7.5
		C293.3,51.6,293.2,52.2,293.2,53z M273.9,43.8c-1.4,1.2-2.3,2.9-2.6,4.9h15.8c-0.3-2-1.1-3.6-2.5-4.9c-1.4-1.2-3.2-1.9-5.3-1.9
		C277.1,42,275.4,42.6,273.9,43.8z"/>
	<path class="st3" d="M325.5,53h-21.8c0.4,2,1.4,3.7,3,4.9c1.6,1.2,3.6,1.8,6,1.8c3,0,5.6-1,7.5-3l3.5,4c-1.2,1.5-2.8,2.6-4.7,3.4
		c-1.9,0.8-4.1,1.1-6.4,1.1c-3.1,0-5.7-0.6-8.1-1.8c-2.3-1.2-4.1-2.9-5.4-5.1c-1.3-2.2-1.9-4.6-1.9-7.4c0-2.7,0.6-5.1,1.8-7.3
		c1.2-2.2,2.9-3.9,5.1-5.1c2.2-1.2,4.6-1.8,7.4-1.8c2.7,0,5.1,0.6,7.3,1.8s3.8,2.9,5,5c1.2,2.2,1.8,4.7,1.8,7.5
		C325.6,51.6,325.6,52.2,325.5,53z M306.3,43.8c-1.4,1.2-2.3,2.9-2.6,4.9h15.8c-0.3-2-1.1-3.6-2.5-4.9c-1.4-1.2-3.2-1.9-5.3-1.9
		C309.5,42,307.7,42.6,306.3,43.8z"/>
	<path class="st3" d="M331.8,26.3h6.5v38.6h-6.5V26.3z"/>
	<path class="st3" d="M381.2,39.7c2.2,2,3.2,4.9,3.2,8.9v16.3h-6.1v-3.4c-0.8,1.2-1.9,2.1-3.4,2.8c-1.5,0.6-3.2,1-5.3,1
		c-2.1,0-3.9-0.4-5.5-1.1c-1.6-0.7-2.8-1.7-3.6-3c-0.9-1.3-1.3-2.7-1.3-4.3c0-2.5,0.9-4.5,2.8-6c1.9-1.5,4.8-2.3,8.8-2.3h7.2v-0.4
		c0-1.9-0.6-3.4-1.7-4.5c-1.2-1-2.9-1.6-5.2-1.6c-1.6,0-3.1,0.2-4.6,0.7c-1.5,0.5-2.8,1.2-3.8,2l-2.5-4.7c1.5-1.1,3.2-2,5.3-2.5
		c2-0.6,4.2-0.9,6.5-0.9C375.9,36.8,379,37.7,381.2,39.7z M375.3,59.4c1.3-0.7,2.2-1.8,2.7-3.2v-3.2h-6.7c-3.7,0-5.6,1.2-5.6,3.7
		c0,1.2,0.5,2.1,1.4,2.8c0.9,0.7,2.2,1,3.9,1C372.6,60.5,374,60.1,375.3,59.4z"/>
	<path class="st3" d="M412.8,39.7c2.2,2,3.2,4.9,3.2,8.9v16.3h-6.1v-3.4c-0.8,1.2-1.9,2.1-3.4,2.8c-1.5,0.6-3.2,1-5.3,1
		c-2.1,0-3.9-0.4-5.5-1.1c-1.6-0.7-2.8-1.7-3.6-3c-0.9-1.3-1.3-2.7-1.3-4.3c0-2.5,0.9-4.5,2.8-6c1.9-1.5,4.8-2.3,8.8-2.3h7.2v-0.4
		c0-1.9-0.6-3.4-1.7-4.5c-1.2-1-2.9-1.6-5.2-1.6c-1.6,0-3.1,0.2-4.6,0.7c-1.5,0.5-2.8,1.2-3.8,2l-2.5-4.7c1.5-1.1,3.2-2,5.3-2.5
		c2-0.6,4.2-0.9,6.5-0.9C407.5,36.8,410.6,37.7,412.8,39.7z M406.8,59.4c1.3-0.7,2.2-1.8,2.7-3.2v-3.2h-6.7c-3.7,0-5.6,1.2-5.6,3.7
		c0,1.2,0.5,2.1,1.4,2.8c0.9,0.7,2.2,1,3.9,1C404.1,60.5,405.6,60.1,406.8,59.4z"/>
	<path class="st3" d="M448.5,39.8c2.1,2,3.2,5.1,3.2,9.1v15.9h-6.5V49.8c0-2.4-0.6-4.3-1.7-5.5c-1.1-1.2-2.8-1.8-4.9-1.8
		c-2.4,0-4.3,0.7-5.7,2.2c-1.4,1.4-2.1,3.5-2.1,6.2v14h-6.5V37.1h6.2v3.6c1.1-1.3,2.4-2.3,4.1-2.9c1.6-0.7,3.5-1,5.5-1
		C443.6,36.8,446.4,37.8,448.5,39.8z"/>
</g>
<g class="st2">
	<path class="st3" d="M60.4,126.4c-2.3-1.2-4-2.9-5.3-5.1c-1.3-2.2-1.9-4.6-1.9-7.4s0.6-5.2,1.9-7.3c1.3-2.1,3-3.8,5.3-5
		c2.3-1.2,4.8-1.8,7.6-1.8c2.8,0,5.4,0.6,7.6,1.8c2.3,1.2,4,2.9,5.3,5c1.3,2.1,1.9,4.6,1.9,7.3s-0.6,5.2-1.9,7.4
		c-1.3,2.2-3,3.9-5.3,5.1c-2.3,1.2-4.8,1.8-7.6,1.8C65.2,128.2,62.7,127.6,60.4,126.4z M73.9,120.3c1.6-1.6,2.3-3.7,2.3-6.3
		c0-2.6-0.8-4.7-2.3-6.3s-3.5-2.4-5.9-2.4s-4.4,0.8-5.9,2.4c-1.5,1.6-2.3,3.7-2.3,6.3c0,2.6,0.8,4.7,2.3,6.3
		c1.5,1.6,3.5,2.4,5.9,2.4S72.4,121.9,73.9,120.3z"/>
	<path class="st3" d="M113.2,102.8c2.1,2,3.2,5.1,3.2,9.1v15.9h-6.5v-15.1c0-2.4-0.6-4.3-1.7-5.5c-1.1-1.2-2.8-1.8-4.9-1.8
		c-2.4,0-4.3,0.7-5.7,2.2c-1.4,1.4-2.1,3.5-2.1,6.2v14h-6.5v-27.8h6.2v3.6c1.1-1.3,2.4-2.3,4.1-2.9c1.6-0.7,3.5-1,5.5-1
		C108.3,99.8,111.1,100.8,113.2,102.8z"/>
	<path class="st3" d="M146.4,122.6v5.2h-24v-4.1l15.2-18.5h-14.9v-5.2h23.2v4.1l-15.3,18.5H146.4z"/>
	<path class="st3" d="M177.9,116h-21.8c0.4,2,1.4,3.7,3,4.9c1.6,1.2,3.6,1.8,6,1.8c3,0,5.6-1,7.5-3l3.5,4c-1.2,1.5-2.8,2.6-4.7,3.4
		c-1.9,0.8-4.1,1.1-6.4,1.1c-3.1,0-5.7-0.6-8.1-1.8c-2.3-1.2-4.1-2.9-5.4-5.1c-1.3-2.2-1.9-4.6-1.9-7.4c0-2.7,0.6-5.1,1.8-7.3
		c1.2-2.2,2.9-3.9,5.1-5.1c2.2-1.2,4.6-1.8,7.4-1.8c2.7,0,5.1,0.6,7.3,1.8s3.8,2.9,5,5c1.2,2.2,1.8,4.7,1.8,7.5
		C178,114.6,178,115.2,177.9,116z M158.7,106.8c-1.4,1.2-2.3,2.9-2.6,4.9h15.8c-0.3-2-1.1-3.6-2.5-4.9c-1.4-1.2-3.2-1.9-5.3-1.9
		C161.9,105,160.1,105.6,158.7,106.8z"/>
	<path class="st3" d="M218.6,102.7c2.2,2,3.2,4.9,3.2,8.9v16.3h-6.1v-3.4c-0.8,1.2-1.9,2.1-3.4,2.8c-1.5,0.6-3.2,1-5.3,1
		c-2.1,0-3.9-0.4-5.5-1.1c-1.6-0.7-2.8-1.7-3.6-3c-0.9-1.3-1.3-2.7-1.3-4.3c0-2.5,0.9-4.5,2.8-6c1.9-1.5,4.8-2.3,8.8-2.3h7.2v-0.4
		c0-1.9-0.6-3.4-1.7-4.5c-1.2-1-2.9-1.6-5.2-1.6c-1.6,0-3.1,0.2-4.6,0.7c-1.5,0.5-2.8,1.2-3.8,2l-2.5-4.7c1.5-1.1,3.2-2,5.3-2.5
		c2-0.6,4.2-0.9,6.5-0.9C213.3,99.8,216.4,100.7,218.6,102.7z M212.7,122.4c1.3-0.7,2.2-1.8,2.7-3.2v-3.2h-6.7
		c-3.7,0-5.6,1.2-5.6,3.7c0,1.2,0.5,2.1,1.4,2.8c0.9,0.7,2.2,1,3.9,1C210,123.5,211.4,123.1,212.7,122.4z"/>
	<path class="st3" d="M235.4,126.4c-2.3-1.2-4.1-2.9-5.4-5.1c-1.3-2.2-1.9-4.6-1.9-7.4s0.6-5.2,1.9-7.3c1.3-2.1,3.1-3.8,5.3-5
		c2.3-1.2,4.9-1.8,7.8-1.8c2.7,0,5.1,0.6,7.2,1.7c2.1,1.1,3.6,2.7,4.7,4.8l-5,2.9c-0.8-1.3-1.8-2.2-3-2.9c-1.2-0.6-2.5-1-3.9-1
		c-2.4,0-4.4,0.8-6,2.4c-1.6,1.6-2.4,3.7-2.4,6.3s0.8,4.7,2.4,6.3c1.6,1.6,3.6,2.4,6.1,2.4c1.4,0,2.7-0.3,3.9-1
		c1.2-0.6,2.2-1.6,3-2.9l5,2.9c-1.1,2.1-2.6,3.7-4.7,4.8c-2.1,1.1-4.4,1.7-7.1,1.7C240.3,128.2,237.7,127.6,235.4,126.4z"/>
	<path class="st3" d="M277.7,126.3c-0.8,0.6-1.7,1.1-2.8,1.4c-1.1,0.3-2.2,0.5-3.5,0.5c-3.1,0-5.4-0.8-7.1-2.4
		c-1.7-1.6-2.5-3.9-2.5-7v-13.4h-4.6v-5.2h4.6v-6.3h6.5v6.3h7.4v5.2h-7.4v13.2c0,1.4,0.3,2.4,1,3.1c0.7,0.7,1.6,1.1,2.9,1.1
		c1.5,0,2.7-0.4,3.6-1.1L277.7,126.3z"/>
	<path class="st3" d="M283.4,94.4c-0.8-0.7-1.2-1.7-1.2-2.8c0-1.1,0.4-2,1.2-2.8c0.8-0.7,1.8-1.1,3-1.1c1.2,0,2.2,0.4,3,1.1
		c0.8,0.7,1.2,1.6,1.2,2.7c0,1.1-0.4,2.1-1.2,2.9c-0.8,0.8-1.8,1.2-3,1.2C285.2,95.5,284.2,95.1,283.4,94.4z M283.1,100.1h6.5v27.8
		h-6.5V100.1z"/>
	<path class="st3" d="M324.1,100.1l-11.9,27.8h-6.7l-11.9-27.8h6.8l8.6,20.6l8.9-20.6H324.1z"/>
	<path class="st3" d="M328.5,94.4c-0.8-0.7-1.2-1.7-1.2-2.8c0-1.1,0.4-2,1.2-2.8c0.8-0.7,1.8-1.1,3-1.1c1.2,0,2.2,0.4,3,1.1
		c0.8,0.7,1.2,1.6,1.2,2.7c0,1.1-0.4,2.1-1.2,2.9c-0.8,0.8-1.8,1.2-3,1.2C330.2,95.5,329.3,95.1,328.5,94.4z M328.1,100.1h6.5v27.8
		h-6.5V100.1z"/>
	<path class="st3" d="M359.9,126.3c-0.8,0.6-1.7,1.1-2.8,1.4c-1.1,0.3-2.2,0.5-3.5,0.5c-3.1,0-5.4-0.8-7.1-2.4
		c-1.7-1.6-2.5-3.9-2.5-7v-13.4h-4.6v-5.2h4.6v-6.3h6.5v6.3h7.4v5.2h-7.4v13.2c0,1.4,0.3,2.4,1,3.1c0.7,0.7,1.6,1.1,2.9,1.1
		c1.5,0,2.7-0.4,3.6-1.1L359.9,126.3z"/>
	<path class="st3" d="M390.3,116h-21.8c0.4,2,1.4,3.7,3,4.9c1.6,1.2,3.6,1.8,6,1.8c3,0,5.6-1,7.5-3l3.5,4c-1.2,1.5-2.8,2.6-4.7,3.4
		c-1.9,0.8-4.1,1.1-6.4,1.1c-3.1,0-5.7-0.6-8.1-1.8c-2.3-1.2-4.1-2.9-5.4-5.1c-1.3-2.2-1.9-4.6-1.9-7.4c0-2.7,0.6-5.1,1.8-7.3
		c1.2-2.2,2.9-3.9,5.1-5.1c2.2-1.2,4.6-1.8,7.4-1.8c2.7,0,5.1,0.6,7.3,1.8s3.8,2.9,5,5c1.2,2.2,1.8,4.7,1.8,7.5
		C390.4,114.6,390.4,115.2,390.3,116z M371.1,106.8c-1.4,1.2-2.3,2.9-2.6,4.9h15.8c-0.3-2-1.1-3.6-2.5-4.9c-1.4-1.2-3.2-1.9-5.3-1.9
		C374.3,105,372.5,105.6,371.1,106.8z"/>
	<path class="st3" d="M396.9,94.4c-0.8-0.7-1.2-1.7-1.2-2.8c0-1.1,0.4-2,1.2-2.8c0.8-0.7,1.8-1.1,3-1.1c1.2,0,2.2,0.4,3,1.1
		c0.8,0.7,1.2,1.6,1.2,2.7c0,1.1-0.4,2.1-1.2,2.9c-0.8,0.8-1.8,1.2-3,1.2C398.7,95.5,397.7,95.1,396.9,94.4z M396.6,100.1h6.5v27.8
		h-6.5V100.1z"/>
	<path class="st3" d="M428.3,126.3c-0.8,0.6-1.7,1.1-2.8,1.4c-1.1,0.3-2.2,0.5-3.5,0.5c-3.1,0-5.4-0.8-7.1-2.4
		c-1.7-1.6-2.5-3.9-2.5-7v-13.4H408v-5.2h4.6v-6.3h6.5v6.3h7.4v5.2H419v13.2c0,1.4,0.3,2.4,1,3.1c0.7,0.7,1.6,1.1,2.9,1.1
		c1.5,0,2.7-0.4,3.6-1.1L428.3,126.3z"/>
	<path class="st3" d="M458.8,116H437c0.4,2,1.4,3.7,3,4.9c1.6,1.2,3.6,1.8,6,1.8c3,0,5.6-1,7.5-3l3.5,4c-1.2,1.5-2.8,2.6-4.7,3.4
		c-1.9,0.8-4.1,1.1-6.4,1.1c-3.1,0-5.7-0.6-8.1-1.8c-2.3-1.2-4.1-2.9-5.4-5.1c-1.3-2.2-1.9-4.6-1.9-7.4c0-2.7,0.6-5.1,1.8-7.3
		c1.2-2.2,2.9-3.9,5.1-5.1c2.2-1.2,4.6-1.8,7.4-1.8c2.7,0,5.1,0.6,7.3,1.8s3.8,2.9,5,5c1.2,2.2,1.8,4.7,1.8,7.5
		C458.9,114.6,458.8,115.2,458.8,116z M439.6,106.8c-1.4,1.2-2.3,2.9-2.6,4.9h15.8c-0.3-2-1.1-3.6-2.5-4.9c-1.4-1.2-3.2-1.9-5.3-1.9
		C442.8,105,441,105.6,439.6,106.8z"/>
	<path class="st3" d="M489.3,102.8c2.1,2,3.2,5.1,3.2,9.1v15.9H486v-15.1c0-2.4-0.6-4.3-1.7-5.5c-1.1-1.2-2.8-1.8-4.9-1.8
		c-2.4,0-4.3,0.7-5.7,2.2c-1.4,1.4-2.1,3.5-2.1,6.2v14h-6.5v-27.8h6.2v3.6c1.1-1.3,2.4-2.3,4.1-2.9c1.6-0.7,3.5-1,5.5-1
		C484.4,99.8,487.2,100.8,489.3,102.8z"/>
	<path class="st3" d="M500.7,127c-0.8-0.8-1.2-1.7-1.2-2.9c0-1.1,0.4-2.1,1.2-2.9c0.8-0.8,1.8-1.1,3-1.1c1.2,0,2.2,0.4,2.9,1.1
		c0.8,0.8,1.2,1.7,1.2,2.9c0,1.1-0.4,2.1-1.2,2.9c-0.8,0.8-1.8,1.2-2.9,1.2C502.5,128.2,501.5,127.8,500.7,127z M499.9,91.4h7.7
		l-1.3,24.3h-5.1L499.9,91.4z"/>
</g>
</svg>
