<?xml version="1.0" encoding="utf-8"?>
<!-- Generator: Adobe Illustrator 25.1.0, SVG Export Plug-In . SVG Version: 6.00 Build 0)  -->
<svg version="1.1" id="Layer_1" xmlns="http://www.w3.org/2000/svg" xmlns:xlink="http://www.w3.org/1999/xlink" x="0px" y="0px"
	 viewBox="0 0 1920 1080" style="enable-background:new 0 0 1920 1080;" xml:space="preserve">
<style type="text/css">
	.st0{fill:#4C9BD2;}
	.st1{enable-background:new    ;}
	.st2{fill:#FFFFFF;}
</style>
<g id="Group_168" transform="translate(-365 -297)">
	<path id="Rectangle_184" class="st0" d="M365,297h569l0,0v100c0,31.5-25.5,57-57,57H365l0,0V297L365,297z"/>
	<g class="st1">
		<path class="st2" d="M402.9,391.1c-3-1.6-5.3-3.8-7-6.7c-1.7-2.9-2.5-6.1-2.5-9.6s0.8-6.7,2.5-9.6c1.7-2.9,4-5.1,7-6.7
			c3-1.6,6.3-2.4,10-2.4c3.7,0,7.1,0.8,10,2.4c3,1.6,5.3,3.8,7,6.7c1.7,2.8,2.5,6,2.5,9.6c0,3.6-0.9,6.8-2.5,9.6
			c-1.7,2.8-4,5.1-7,6.7c-3,1.6-6.3,2.4-10,2.4C409.2,393.5,405.8,392.7,402.9,391.1z M419.4,386c1.9-1.1,3.5-2.6,4.6-4.6
			c1.1-2,1.7-4.2,1.7-6.6c0-2.4-0.6-4.6-1.7-6.6c-1.1-2-2.6-3.5-4.6-4.6c-1.9-1.1-4.1-1.6-6.6-1.6c-2.4,0-4.6,0.5-6.6,1.6
			c-1.9,1.1-3.5,2.6-4.6,4.6c-1.1,2-1.7,4.2-1.7,6.6c0,2.4,0.6,4.6,1.7,6.6c1.1,2,2.6,3.5,4.6,4.6c1.9,1.1,4.1,1.6,6.6,1.6
			C415.3,387.6,417.5,387,419.4,386z"/>
		<path class="st2" d="M463.2,368c2.1,2,3.2,5.1,3.2,9.1V393h-6.5v-15.1c0-2.4-0.6-4.3-1.7-5.5c-1.1-1.2-2.8-1.8-4.9-1.8
			c-2.4,0-4.3,0.7-5.7,2.2c-1.4,1.4-2.1,3.5-2.1,6.2v14H439v-27.8h6.2v3.6c1.1-1.3,2.4-2.3,4.1-2.9c1.6-0.7,3.5-1,5.5-1
			C458.3,364.9,461.1,365.9,463.2,368z"/>
		<path class="st2" d="M491.4,391.5c-0.8,0.6-1.7,1.1-2.8,1.4c-1.1,0.3-2.2,0.5-3.5,0.5c-3.1,0-5.4-0.8-7.1-2.4
			c-1.7-1.6-2.5-3.9-2.5-7v-13.4H471v-5.2h4.6v-6.3h6.5v6.3h7.4v5.2h-7.4v13.2c0,1.4,0.3,2.4,1,3.1c0.7,0.7,1.6,1.1,2.9,1.1
			c1.5,0,2.7-0.4,3.6-1.1L491.4,391.5z"/>
		<path class="st2" d="M540.1,368c2,2,3.1,5.1,3.1,9.1V393h-6.5v-15.1c0-2.4-0.5-4.3-1.6-5.5c-1.1-1.2-2.6-1.8-4.6-1.8
			c-2.2,0-3.9,0.7-5.3,2.2c-1.3,1.4-2,3.5-2,6.2V393h-6.5v-15.1c0-2.4-0.5-4.3-1.6-5.5c-1.1-1.2-2.6-1.8-4.6-1.8
			c-2.2,0-4,0.7-5.3,2.1c-1.3,1.4-1.9,3.5-1.9,6.2V393h-6.5v-27.8h6.2v3.5c1-1.2,2.3-2.2,3.9-2.9c1.6-0.7,3.3-1,5.2-1
			c2.1,0,3.9,0.4,5.5,1.2c1.6,0.8,2.9,1.9,3.8,3.5c1.1-1.5,2.6-2.6,4.4-3.4c1.8-0.8,3.8-1.2,6-1.2C535.3,364.9,538,365.9,540.1,368z
			"/>
		<path class="st2" d="M556.6,391.5c-2.3-1.2-4-2.9-5.3-5.1c-1.3-2.2-1.9-4.6-1.9-7.4s0.6-5.2,1.9-7.3c1.3-2.1,3-3.8,5.3-5
			c2.3-1.2,4.8-1.8,7.6-1.8c2.8,0,5.4,0.6,7.6,1.8c2.3,1.2,4,2.9,5.3,5c1.3,2.1,1.9,4.6,1.9,7.3s-0.6,5.2-1.9,7.4
			c-1.3,2.2-3,3.9-5.3,5.1c-2.3,1.2-4.8,1.8-7.6,1.8C561.4,393.4,558.9,392.8,556.6,391.5z M570.1,385.4c1.6-1.6,2.3-3.7,2.3-6.3
			c0-2.6-0.8-4.7-2.3-6.3s-3.5-2.4-5.9-2.4s-4.4,0.8-5.9,2.4c-1.5,1.6-2.3,3.7-2.3,6.3c0,2.6,0.8,4.7,2.3,6.3
			c1.5,1.6,3.5,2.4,5.9,2.4S568.6,387,570.1,385.4z"/>
		<path class="st2" d="M611.3,381.2h-21.8c0.4,2,1.4,3.7,3,4.9c1.6,1.2,3.6,1.8,6,1.8c3,0,5.6-1,7.5-3l3.5,4
			c-1.2,1.5-2.8,2.6-4.7,3.4c-1.9,0.8-4.1,1.1-6.4,1.1c-3.1,0-5.7-0.6-8.1-1.8c-2.3-1.2-4.1-2.9-5.4-5.1c-1.3-2.2-1.9-4.6-1.9-7.4
			c0-2.7,0.6-5.1,1.8-7.3c1.2-2.2,2.9-3.9,5.1-5.1c2.2-1.2,4.6-1.8,7.4-1.8c2.7,0,5.1,0.6,7.3,1.8s3.8,2.9,5,5
			c1.2,2.2,1.8,4.7,1.8,7.5C611.4,379.7,611.3,380.4,611.3,381.2z M592.1,372c-1.4,1.2-2.3,2.9-2.6,4.9h15.8c-0.3-2-1.1-3.6-2.5-4.9
			c-1.4-1.2-3.2-1.9-5.3-1.9C595.3,370.1,593.5,370.7,592.1,372z"/>
		<path class="st2" d="M634.3,391.5c-0.8,0.6-1.7,1.1-2.8,1.4c-1.1,0.3-2.2,0.5-3.5,0.5c-3.1,0-5.4-0.8-7.1-2.4
			c-1.7-1.6-2.5-3.9-2.5-7v-13.4h-4.6v-5.2h4.6v-6.3h6.5v6.3h7.4v5.2H625v13.2c0,1.4,0.3,2.4,1,3.1c0.7,0.7,1.6,1.1,2.9,1.1
			c1.5,0,2.7-0.4,3.6-1.1L634.3,391.5z"/>
		<path class="st2" d="M678.2,368c2.1,2,3.2,5.1,3.2,9.1V393h-6.5v-15.1c0-2.4-0.6-4.3-1.7-5.5c-1.1-1.2-2.8-1.8-4.9-1.8
			c-2.4,0-4.3,0.7-5.7,2.2c-1.4,1.4-2.1,3.5-2.1,6.2v14H654v-38.6h6.5v14c1.1-1.1,2.4-2,4-2.6c1.6-0.6,3.3-0.9,5.3-0.9
			C673.3,364.9,676.1,365.9,678.2,368z"/>
		<path class="st2" d="M715.9,381.2h-21.8c0.4,2,1.4,3.7,3,4.9c1.6,1.2,3.6,1.8,6,1.8c3,0,5.6-1,7.5-3l3.5,4
			c-1.2,1.5-2.8,2.6-4.7,3.4c-1.9,0.8-4.1,1.1-6.4,1.1c-3.1,0-5.7-0.6-8.1-1.8c-2.3-1.2-4.1-2.9-5.4-5.1c-1.3-2.2-1.9-4.6-1.9-7.4
			c0-2.7,0.6-5.1,1.8-7.3c1.2-2.2,2.9-3.9,5.1-5.1c2.2-1.2,4.6-1.8,7.4-1.8c2.7,0,5.1,0.6,7.3,1.8s3.8,2.9,5,5
			c1.2,2.2,1.8,4.7,1.8,7.5C716,379.7,716,380.4,715.9,381.2z M696.7,372c-1.4,1.2-2.3,2.9-2.6,4.9h15.8c-0.3-2-1.1-3.6-2.5-4.9
			c-1.4-1.2-3.2-1.9-5.3-1.9C699.9,370.1,698.1,370.7,696.7,372z"/>
		<path class="st2" d="M738.9,391.5c-0.8,0.6-1.7,1.1-2.8,1.4c-1.1,0.3-2.2,0.5-3.5,0.5c-3.1,0-5.4-0.8-7.1-2.4
			c-1.7-1.6-2.5-3.9-2.5-7v-13.4h-4.6v-5.2h4.6v-6.3h6.5v6.3h7.4v5.2h-7.4v13.2c0,1.4,0.3,2.4,1,3.1c0.7,0.7,1.6,1.1,2.9,1.1
			c1.5,0,2.7-0.4,3.6-1.1L738.9,391.5z"/>
		<path class="st2" d="M775.3,391.5c-0.8,0.6-1.7,1.1-2.8,1.4c-1.1,0.3-2.2,0.5-3.5,0.5c-3.1,0-5.4-0.8-7.1-2.4
			c-1.7-1.6-2.5-3.9-2.5-7v-13.4h-4.6v-5.2h4.6v-6.3h6.5v6.3h7.4v5.2H766v13.2c0,1.4,0.3,2.4,1,3.1c0.7,0.7,1.6,1.1,2.9,1.1
			c1.5,0,2.7-0.4,3.6-1.1L775.3,391.5z"/>
		<path class="st2" d="M805.7,381.2H784c0.4,2,1.4,3.7,3,4.9c1.6,1.2,3.6,1.8,6,1.8c3,0,5.6-1,7.5-3l3.5,4c-1.2,1.5-2.8,2.6-4.7,3.4
			c-1.9,0.8-4.1,1.1-6.4,1.1c-3.1,0-5.7-0.6-8.1-1.8c-2.3-1.2-4.1-2.9-5.4-5.1c-1.3-2.2-1.9-4.6-1.9-7.4c0-2.7,0.6-5.1,1.8-7.3
			c1.2-2.2,2.9-3.9,5.1-5.1c2.2-1.2,4.6-1.8,7.4-1.8c2.7,0,5.1,0.6,7.3,1.8s3.8,2.9,5,5c1.2,2.2,1.8,4.7,1.8,7.5
			C805.9,379.7,805.8,380.4,805.7,381.2z M786.5,372c-1.4,1.2-2.3,2.9-2.6,4.9h15.8c-0.3-2-1.1-3.6-2.5-4.9
			c-1.4-1.2-3.2-1.9-5.3-1.9C789.7,370.1,788,370.7,786.5,372z"/>
		<path class="st2" d="M831.3,367.9c2.2,2,3.2,4.9,3.2,8.9V393h-6.1v-3.4c-0.8,1.2-1.9,2.1-3.4,2.8c-1.5,0.6-3.2,1-5.3,1
			c-2.1,0-3.9-0.4-5.5-1.1c-1.6-0.7-2.8-1.7-3.6-3c-0.9-1.3-1.3-2.7-1.3-4.3c0-2.5,0.9-4.5,2.8-6c1.9-1.5,4.8-2.3,8.8-2.3h7.2v-0.4
			c0-1.9-0.6-3.4-1.7-4.5c-1.2-1-2.9-1.6-5.2-1.6c-1.6,0-3.1,0.2-4.6,0.7c-1.5,0.5-2.8,1.2-3.8,2l-2.5-4.7c1.5-1.1,3.2-2,5.3-2.5
			c2-0.6,4.2-0.9,6.5-0.9C826,364.9,829.1,365.9,831.3,367.9z M825.4,387.5c1.3-0.7,2.2-1.8,2.7-3.2v-3.2h-6.7
			c-3.7,0-5.6,1.2-5.6,3.7c0,1.2,0.5,2.1,1.4,2.8c0.9,0.7,2.2,1,3.9,1C822.7,388.6,824.1,388.3,825.4,387.5z"/>
		<path class="st2" d="M886.2,368c2,2,3.1,5.1,3.1,9.1V393h-6.5v-15.1c0-2.4-0.5-4.3-1.6-5.5c-1.1-1.2-2.6-1.8-4.6-1.8
			c-2.2,0-3.9,0.7-5.3,2.2c-1.3,1.4-2,3.5-2,6.2V393h-6.5v-15.1c0-2.4-0.5-4.3-1.6-5.5c-1.1-1.2-2.6-1.8-4.6-1.8
			c-2.2,0-4,0.7-5.3,2.1c-1.3,1.4-1.9,3.5-1.9,6.2V393h-6.5v-27.8h6.2v3.5c1-1.2,2.3-2.2,3.9-2.9c1.6-0.7,3.3-1,5.2-1
			c2.1,0,3.9,0.4,5.5,1.2c1.6,0.8,2.9,1.9,3.8,3.5c1.1-1.5,2.6-2.6,4.4-3.4c1.8-0.8,3.8-1.2,6-1.2
			C881.4,364.9,884.2,365.9,886.2,368z"/>
		<path class="st2" d="M897.6,392.2c-0.8-0.8-1.2-1.7-1.2-2.9c0-1.1,0.4-2.1,1.2-2.9c0.8-0.8,1.8-1.1,3-1.1c1.2,0,2.2,0.4,2.9,1.1
			c0.8,0.8,1.2,1.7,1.2,2.9c0,1.1-0.4,2.1-1.2,2.9c-0.8,0.8-1.8,1.2-2.9,1.2C899.4,393.4,898.4,393,897.6,392.2z M896.8,356.6h7.7
			l-1.3,24.3H898L896.8,356.6z"/>
	</g>
</g>
</svg>
