<?xml version="1.0" encoding="utf-8"?>
<!-- Generator: Adobe Illustrator 25.1.0, SVG Export Plug-In . SVG Version: 6.00 Build 0)  -->
<svg version="1.1" id="Layer_1" xmlns="http://www.w3.org/2000/svg" xmlns:xlink="http://www.w3.org/1999/xlink" x="0px" y="0px"
	 viewBox="0 0 228.5 192.2" style="enable-background:new 0 0 228.5 192.2;" xml:space="preserve">
<style type="text/css">
	.st0{fill:#4CAF4F;}
	.st1{fill:#AD5EA3;}
	.st2{fill:#FFFFFF;}
	.st3{fill:#F9B715;}
	.st4{fill:#4C9BD2;}
	.st5{enable-background:new    ;}
</style>
<g id="f88f85f7-b7ff-4564-86b2-683974792c14">
	<g id="feca758c-fc55-4a1f-906a-a8ac548bac13">
		<g id="e0b32898-a6f1-42c4-a5f0-86bf4e3c5c3f">
			<ellipse id="e4c71f5a-be20-4d28-90c9-6eb4fadcf7f9" class="st0" cx="67.4" cy="51" rx="18.6" ry="18.9"/>
			<circle id="a35b6aec-eb2f-443e-846d-b5cb7685676c" class="st1" cx="127.7" cy="171" r="21.2"/>
			<ellipse id="b125e5ed-f7a7-403a-ae99-f602a0aae216" class="st2" cx="153.3" cy="106.8" rx="64.2" ry="65.2"/>
			<ellipse id="eadd84c4-4bae-4123-998d-ae8823de515f" class="st3" cx="153.3" cy="106" rx="59.6" ry="60.7"/>
			<ellipse id="bca1e426-2466-404e-8d22-e04e57cc501a" class="st2" cx="166.3" cy="38.6" rx="37.7" ry="38.6"/>
			<circle id="a7a3e0a6-89fd-4107-88ec-8185541634df" class="st4" cx="166.3" cy="38.6" r="33.8"/>
			<g id="b0487bd2-b1f6-4a6a-b5b0-ecf396997e7d">
				<g class="st5">
					<path d="M103.8,112.7c-1.9-0.5-3.5-1-4.7-1.8l2.5-5.7c1.1,0.7,2.4,1.2,3.9,1.6c1.5,0.4,3,0.6,4.4,0.6c1.3,0,2.3-0.1,2.9-0.4
						c0.6-0.3,0.9-0.7,0.9-1.2c0-0.5-0.3-0.9-1-1.1c-0.7-0.2-1.8-0.4-3.3-0.6c-1.9-0.2-3.5-0.5-4.9-0.9c-1.3-0.4-2.5-1.1-3.5-2.1
						c-1-1-1.5-2.5-1.5-4.3c0-1.5,0.5-2.9,1.4-4.1c0.9-1.2,2.2-2.1,4-2.8c1.7-0.7,3.8-1,6.3-1c1.7,0,3.4,0.2,5.1,0.5
						c1.7,0.4,3.1,0.9,4.3,1.5l-2.5,5.7c-2.1-1.2-4.4-1.8-6.9-1.8c-1.3,0-2.3,0.2-2.9,0.5c-0.6,0.3-0.9,0.7-0.9,1.2
						c0,0.6,0.3,0.9,1,1.2c0.7,0.2,1.8,0.4,3.3,0.7c2,0.3,3.6,0.6,4.9,1c1.3,0.4,2.4,1.1,3.4,2.1c1,1,1.4,2.4,1.4,4.2
						c0,1.5-0.5,2.8-1.4,4c-0.9,1.2-2.3,2.1-4,2.8c-1.8,0.7-3.9,1-6.4,1C107.7,113.3,105.7,113.1,103.8,112.7z"/>
				</g>
				<g class="st5">
					<path d="M141.5,112c-0.7,0.4-1.6,0.8-2.6,1s-2.1,0.4-3.2,0.4c-3.1,0-5.5-0.8-7.2-2.3s-2.5-3.8-2.5-6.8v-8h-3.5V90h3.5v-6.2h8.4
						V90h5.5v6.2h-5.5v7.9c0,0.9,0.2,1.5,0.7,2c0.5,0.5,1.1,0.7,1.8,0.7c1,0,1.8-0.2,2.6-0.7L141.5,112z"/>
				</g>
				<g class="st5">
					<path d="M168.3,103.1h-17.3c0.4,1.2,1,2.2,2,2.8c1,0.7,2.3,1,3.8,1c1.1,0,2.1-0.2,3-0.5c0.8-0.3,1.7-0.9,2.5-1.6l4.4,4.6
						c-2.3,2.6-5.7,3.9-10.2,3.9c-2.8,0-5.2-0.5-7.3-1.6c-2.1-1.1-3.7-2.5-4.9-4.4c-1.2-1.9-1.7-4-1.7-6.4c0-2.3,0.6-4.5,1.7-6.3
						c1.1-1.9,2.7-3.3,4.7-4.4c2-1.1,4.2-1.6,6.7-1.6c2.4,0,4.5,0.5,6.5,1.5c1.9,1,3.5,2.4,4.6,4.3c1.1,1.9,1.7,4.1,1.7,6.6
						C168.4,101.1,168.4,101.8,168.3,103.1z M152.5,95.7c-0.9,0.7-1.4,1.7-1.7,3h9.8c-0.2-1.3-0.8-2.3-1.7-3
						c-0.9-0.7-1.9-1.1-3.2-1.1C154.4,94.6,153.3,95,152.5,95.7z"/>
					<path d="M196.5,103.1h-17.3c0.4,1.2,1,2.2,2,2.8c1,0.7,2.3,1,3.8,1c1.1,0,2.1-0.2,3-0.5c0.8-0.3,1.7-0.9,2.5-1.6l4.4,4.6
						c-2.3,2.6-5.7,3.9-10.2,3.9c-2.8,0-5.2-0.5-7.3-1.6c-2.1-1.1-3.7-2.5-4.9-4.4c-1.2-1.9-1.7-4-1.7-6.4c0-2.3,0.6-4.5,1.7-6.3
						c1.1-1.9,2.7-3.3,4.7-4.4c2-1.1,4.2-1.6,6.7-1.6c2.4,0,4.5,0.5,6.5,1.5c1.9,1,3.5,2.4,4.6,4.3c1.1,1.9,1.7,4.1,1.7,6.6
						C196.7,101.1,196.6,101.8,196.5,103.1z M180.7,95.7c-0.9,0.7-1.4,1.7-1.7,3h9.8c-0.2-1.3-0.8-2.3-1.7-3
						c-0.9-0.7-1.9-1.1-3.2-1.1C182.7,94.6,181.6,95,180.7,95.7z"/>
					<path d="M223.2,91.3c1.8,1.8,2.7,4.4,2.7,8v13.6h-8.4v-12.3c0-3.3-1.3-4.9-3.9-4.9c-1.4,0-2.6,0.5-3.5,1.4
						c-0.9,0.9-1.3,2.3-1.3,4.2v11.5h-8.4V89.1h8v2.6c0.9-1,2.1-1.7,3.3-2.2c1.3-0.5,2.7-0.8,4.2-0.8
						C219,88.7,221.4,89.6,223.2,91.3z"/>
				</g>
			</g>
			<g id="f4d46176-5aa4-4166-8529-d38c56b98d29">
				<g class="st5">
					<path d="M5.1,111.8c-1.6-0.6-2.9-1.3-3.7-2.2l0.5-0.7c0.9,0.9,2.1,1.6,3.5,2.1c1.5,0.6,3.1,0.9,4.8,0.9c2.6,0,4.5-0.4,5.7-1.3
						c1.2-0.9,1.8-2.1,1.8-3.7c0-1.1-0.3-2-1-2.7s-1.5-1.1-2.4-1.5c-1-0.3-2.3-0.6-3.9-0.9c-1.8-0.3-3.2-0.7-4.3-1
						c-1.1-0.4-2-1-2.8-1.8c-0.7-0.8-1.1-1.9-1.1-3.4c0-1.6,0.7-3,2-4.2c1.4-1.1,3.4-1.7,6-1.7c1.4,0,2.8,0.2,4.2,0.6
						c1.4,0.4,2.5,1,3.3,1.7l-0.5,0.7c-0.9-0.7-1.9-1.2-3.2-1.6s-2.5-0.6-3.8-0.6C8,90.5,6.2,91,5,91.9S3.2,94,3.2,95.5
						c0,1.2,0.3,2.1,1,2.8c0.7,0.7,1.5,1.2,2.5,1.5c1,0.3,2.3,0.6,4,0.9c1.8,0.4,3.2,0.7,4.3,1.1c1.1,0.4,2,0.9,2.7,1.7
						c0.7,0.8,1.1,1.9,1.1,3.2c0,1.8-0.7,3.2-2.2,4.3c-1.4,1.1-3.5,1.6-6.3,1.6C8.5,112.7,6.8,112.4,5.1,111.8z"/>
					<path d="M35.7,111c-0.5,0.5-1.2,0.9-2,1.2c-0.8,0.3-1.6,0.4-2.5,0.4c-1.8,0-3.1-0.5-4.1-1.5c-1-1-1.4-2.4-1.4-4.1V90.6h-4.4
						v-0.8h4.4v-5h0.9v5h7.7v0.8h-7.7v16.2c0,1.6,0.4,2.8,1.2,3.7c0.8,0.9,2,1.3,3.5,1.3c1.5,0,2.8-0.5,3.8-1.4L35.7,111z"/>
					<path d="M55.8,91.7c1.4,1.4,2.1,3.3,2.1,5.9v14.9H57v-4.8c-0.7,1.6-1.8,2.8-3.3,3.7c-1.5,0.9-3.3,1.3-5.3,1.3
						c-2.5,0-4.5-0.6-5.9-1.7c-1.4-1.2-2.1-2.7-2.1-4.6c0-1.8,0.6-3.3,1.9-4.4c1.3-1.1,3.3-1.7,6.2-1.7H57v-2.5
						c0-2.4-0.6-4.2-1.8-5.4c-1.2-1.2-3-1.8-5.4-1.8c-1.6,0-3.2,0.3-4.6,0.9c-1.4,0.6-2.6,1.3-3.7,2.3L40.9,93
						c1.1-1.1,2.4-1.9,4-2.5c1.6-0.6,3.2-0.9,4.9-0.9C52.4,89.7,54.4,90.3,55.8,91.7z M57,106v-5h-8.7c-2.5,0-4.3,0.5-5.4,1.4
						c-1.2,0.9-1.7,2.2-1.7,3.8c0,1.7,0.6,3.1,1.9,4.1c1.3,1,3,1.5,5.3,1.5C52.6,111.8,55.5,109.9,57,106z"/>
					<path d="M84.4,91.1c1.7,1,3,2.4,4,4.1c1,1.8,1.5,3.7,1.5,5.9c0,2.2-0.5,4.2-1.5,5.9c-1,1.7-2.3,3.1-4,4.1
						c-1.7,1-3.6,1.5-5.6,1.5c-2.3,0-4.4-0.6-6.3-1.9c-1.8-1.3-3.1-3-3.9-5.1v15.4h-0.9V89.8h0.9v7c0.8-2.2,2.1-3.9,3.9-5.2
						c1.8-1.3,3.9-1.9,6.3-1.9C80.9,89.7,82.7,90.2,84.4,91.1z M84,110.5c1.6-0.9,2.8-2.2,3.7-3.8c0.9-1.6,1.3-3.5,1.3-5.5
						c0-2.1-0.4-3.9-1.3-5.5c-0.9-1.6-2.1-2.9-3.7-3.8c-1.6-0.9-3.3-1.4-5.2-1.4c-1.9,0-3.6,0.5-5.2,1.4c-1.6,0.9-2.8,2.2-3.7,3.8
						c-0.9,1.6-1.3,3.5-1.3,5.5c0,2.1,0.4,3.9,1.3,5.5c0.9,1.6,2.1,2.9,3.7,3.8c1.6,0.9,3.3,1.3,5.2,1.3
						C80.7,111.8,82.4,111.4,84,110.5z"/>
				</g>
			</g>
		</g>
	</g>
</g>
</svg>
