<?xml version="1.0" encoding="utf-8"?>
<!-- Generator: Adobe Illustrator 25.1.0, SVG Export Plug-In . SVG Version: 6.00 Build 0)  -->
<svg version="1.1" id="Layer_1" xmlns="http://www.w3.org/2000/svg" xmlns:xlink="http://www.w3.org/1999/xlink" x="0px" y="0px"
	 viewBox="0 0 1080 1080" style="enable-background:new 0 0 1080 1080;" xml:space="preserve">
<style type="text/css">
	.st0{fill:#4C9BD2;}
	.st1{fill:#FFFFFF;}
	.st2{fill:#F9B715;}
	.st3{fill:none;}
</style>
<g>
	<path id="Path_333_1_" class="st0" d="M540.9,210c182.6,0,330.7,148,330.7,330.7s-148,330.7-330.7,330.7s-330.7-148-330.7-330.7
		S358.3,210,540.9,210z"/>
	<path id="Path_335_1_" class="st1" d="M833.1,99c100.5,0,181.9,81.4,181.9,181.9s-81.4,181.9-181.9,181.9s-181.9-81.4-181.9-181.9
		S732.6,99,833.1,99z"/>
	<path id="Path_334_1_" class="st2" d="M833.1,132.1c82.2,0,148.8,66.6,148.8,148.8s-66.6,148.8-148.8,148.8
		s-148.8-66.6-148.8-148.8S750.9,132.1,833.1,132.1z"/>
</g>
<rect x="540" class="st3" width="540" height="540"/>
<rect x="540" y="540" class="st3" width="540" height="540"/>
</svg>
