<?xml version="1.0" encoding="utf-8"?>
<!-- Generator: Adobe Illustrator 25.1.0, SVG Export Plug-In . SVG Version: 6.00 Build 0)  -->
<svg version="1.1" id="Layer_1" xmlns="http://www.w3.org/2000/svg" xmlns:xlink="http://www.w3.org/1999/xlink" x="0px" y="0px"
	 viewBox="0 0 1080 1080" style="enable-background:new 0 0 1080 1080;" xml:space="preserve">
<style type="text/css">
	.st0{fill:#4C9BD2;}
	.st1{fill:#F9B715;}
	.st2{fill:none;}
</style>
<g>
	<path class="st0" d="M871.6,540.7c0,182.6-148,330.7-330.7,330.7c-182.6,0-330.7-148-330.7-330.7S358.3,210,540.9,210
		c41.2,0,80.7,7.5,117.1,21.3c-4.4,15.8-6.8,32.4-6.8,49.5c0,100.5,81.5,181.9,181.9,181.9c9.8,0,19.4-0.8,28.7-2.3
		C868.2,486.2,871.6,513.1,871.6,540.7z"/>
	<path id="Path_334_1_" class="st1" d="M833.1,132.1c82.2,0,148.8,66.6,148.8,148.8s-66.6,148.8-148.8,148.8
		s-148.8-66.6-148.8-148.8S750.9,132.1,833.1,132.1z"/>
</g>
<rect x="540" class="st2" width="540" height="540"/>
<rect x="540" y="540" class="st2" width="540" height="540"/>
<rect class="st2" width="1080" height="1080"/>
</svg>
