<svg xmlns="http://www.w3.org/2000/svg" width="1080" height="1080" viewBox="0 0 1080 1080"><g id="b4387d72-c26f-491e-82fb-1ae709d9f2bd" data-name="Layer 2"><g id="e7be1c5c-ea25-495b-8b05-f725b52e72dc" data-name="Layer 1"><path id="e590f6cf-a804-4b5b-a831-7bfcc7c2beb4" data-name="Path 333" d="M540.94,210.05c182.63,0,330.68,148.05,330.68,330.68S723.57,871.4,540.94,871.4s-330.67-148-330.67-330.67S358.32,210.05,540.94,210.05Z" fill="#4c9bd2"/><path id="a3e906bc-d11e-425f-affe-6b463dbdb824" data-name="Path 335" d="M833.09,99C933.55,99,1015,180.44,1015,280.91A181.91,181.91,0,0,1,833.09,462.82c-100.47,0-181.92-81.44-181.92-181.91A181.92,181.92,0,0,1,833.09,99Z" fill="#fff"/><path id="e22fd8eb-f296-4218-86aa-b67d130e1cc3" data-name="Path 334" d="M833.09,132.14A148.77,148.77,0,1,1,684.32,280.91,148.77,148.77,0,0,1,833.09,132.14Z" fill="#f9b715"/><rect x="540" width="540" height="540" fill="none"/><rect x="540" y="540" width="540" height="540" fill="none"/><rect width="1080" height="1080" fill="none"/></g></g></svg>